<?xml version="1.0" encoding="UTF-8"?>
<svg width="513px" height="515px" viewBox="0 0 513 515" xmlns="http://www.w3.org/2000/svg" xmlns:xlink="http://www.w3.org/1999/xlink" version="1.1">
 <!-- Generated by Pixelmator Pro 1.5.4 -->
 <g id="XMLID_1_">
  <defs>
   <linearGradient id="linear-gradient" gradientUnits="userSpaceOnUse" x1="-68.195" y1="-68.422" x2="-67.958" y2="-68.422">
    <stop offset="0" stop-color="#070135" stop-opacity="1"/>
    <stop offset="1" stop-color="#612d50" stop-opacity="1"/>
   </linearGradient>
  </defs>
  <path id="XMLID_3_" d="M96.817 19.566 L417.483 19.566 C459.717 19.566 494 53.849 494 96.083 L494 418.835 C494 461.069 459.717 495.352 417.483 495.352 L96.817 495.352 C54.583 495.352 20.3 461.069 20.3 418.835 L20.3 96.083 C20.3 53.849 54.452 19.566 96.817 19.566 Z" fill-opacity="1" fill="url(#linear-gradient)" stroke="none"/>
  <path id="XMLID_7_" d="M260.669 224.349 C272.792 224.349 281.917 221.742 288.174 216.398 294.431 211.184 297.559 203.363 297.559 193.065 297.559 182.897 294.431 175.207 288.174 169.992 281.917 164.648 272.792 161.911 260.669 161.911 L218.175 161.911 218.175 224.349 Z M263.276 353.268 C278.658 353.268 290.259 350.009 297.95 343.622 305.771 337.234 309.682 327.458 309.682 314.423 309.682 301.648 305.771 292.133 298.08 285.745 290.39 279.358 278.788 276.099 263.146 276.099 L218.044 276.099 218.044 353.268 Z M334.709 247.291 C351.134 251.984 363.908 260.718 373.033 273.492 382.027 286.267 386.59 301.909 386.59 320.419 386.59 348.836 376.944 370.083 357.521 384.031 338.099 397.979 308.639 405.018 269.012 405.018 L141.527 405.018 141.527 110.291 256.759 110.291 C298.08 110.291 328.062 116.418 346.572 128.801 365.212 141.185 374.467 160.998 374.467 188.242 374.467 202.581 371.078 214.834 364.299 225.001 357.521 235.038 347.614 242.468 334.709 247.291" fill="#ffffff" fill-opacity="1" stroke="none"/>
 </g>
</svg>
