<?xml version="1.0" encoding="UTF-8"?>
<svg width="500px" height="500px" viewBox="0 0 500 500" xmlns="http://www.w3.org/2000/svg" xmlns:xlink="http://www.w3.org/1999/xlink" version="1.1">
 <!-- Generated by Pixelmator Pro 1.5.4 -->
 <g id="XMLID_1_">
  <path id="XMLID_2_" d="M24.5 25.5 L474 25.5 474 475 24.5 475 Z" fill="#f7df1e" fill-opacity="1" stroke="none"/>
  <path id="XMLID_3_" d="M142.725 401.11 L177.083 380.297 C183.734 392.12 189.768 401.972 204.177 401.972 218.093 401.972 226.836 396.553 226.836 375.371 L226.836 231.901 269.077 231.901 269.077 376.11 C269.077 419.828 243.462 439.779 206.024 439.779 172.281 439.779 152.7 422.292 142.724 401.11" fill="#000000" fill-opacity="1" stroke="none"/>
  <path id="XMLID_4_" d="M292.106 396.553 L326.465 376.603 C335.578 391.381 347.278 402.218 368.09 402.218 385.578 402.218 396.784 393.474 396.784 381.405 396.784 366.874 385.331 361.825 365.997 353.327 L355.406 348.771 C324.987 335.84 304.668 319.461 304.668 285.102 304.668 253.452 328.805 229.314 366.489 229.314 393.336 229.314 412.671 238.674 426.587 263.058 L393.706 284.116 C386.44 271.186 378.681 266.013 366.612 266.013 354.297 266.013 346.416 273.895 346.416 284.116 346.416 296.801 354.297 301.973 372.401 309.732 L382.992 314.288 C418.952 329.682 439.148 345.322 439.148 380.667 439.148 418.72 409.223 439.533 369.199 439.533 329.79 439.779 304.421 421.06 292.106 396.553" fill="#000000" fill-opacity="1" stroke="none"/>
 </g>
</svg>
