<?xml version="1.0" encoding="UTF-8"?>
<svg width="785px" height="500px" viewBox="0 0 785 500" xmlns="http://www.w3.org/2000/svg" xmlns:xlink="http://www.w3.org/1999/xlink" version="1.1">
 <!-- Generated by Pixelmator Pro 1.5.4 -->
 <g id="XMLID_1_">
  <path id="XMLID_2_" d="M0.5 97.8 L0.5 359.802 218.655 359.802 218.655 403.863 392.75 403.863 392.75 359.802 785 359.802 785 97.8 Z" fill="#cb3837" fill-opacity="1" stroke="none"/>
  <path id="XMLID_3_" d="M130.748 141.861 L44.346 141.861 44.346 185.707 44.346 315.955 130.748 315.955 130.748 185.707 174.594 185.707 174.594 315.955 218.655 315.955 218.655 185.707 218.655 141.861 Z" fill="#ffffff" fill-opacity="1" stroke="none"/>
  <path id="XMLID_4_" d="M262.501 141.861 L262.501 306.928 262.501 315.955 262.501 359.802 350.408 359.802 350.408 315.955 436.811 315.955 436.811 141.861 Z M392.75 272.109 L350.408 272.109 350.408 185.707 392.75 185.707 Z" fill="#ffffff" fill-opacity="1" stroke="none"/>
  <path id="XMLID_7_" d="M566.844 141.861 L480.657 141.861 480.657 185.707 480.657 315.955 566.844 315.955 566.844 185.707 610.905 185.707 610.905 315.955 654.751 315.955 654.751 185.707 698.597 185.707 698.597 315.955 742.658 315.955 742.658 185.707 742.658 144.87 742.658 141.861 Z" fill="#ffffff" fill-opacity="1" stroke="none"/>
 </g>
</svg>
