<?xml version="1.0" encoding="UTF-8"?>
<svg width="503px" height="569px" viewBox="0 0 503 569" xmlns="http://www.w3.org/2000/svg" xmlns:xlink="http://www.w3.org/1999/xlink" version="1.1">
 <!-- Generated by Pixelmator Pro 1.5.4 -->
 <g id="XMLID_1_">
  <path id="XMLID_2_" d="M251.714 0.5 L502.927 142.556 502.927 426.944 251.714 569 0.5 426.944 0.5 142.556 Z" fill="#ffffff" fill-opacity="1" stroke="none"/>
  <path id="XMLID_3_" d="M458.053 417.033 L259.973 529.219 259.973 441.948 383.446 373.948 Z M471.68 404.782 L471.68 170.5 399.276 212.345 399.276 363.073 Z M44.548 417.033 L242.629 529.081 242.629 441.81 119.155 373.948 Z M31.058 404.782 L31.058 170.5 103.463 212.345 103.463 363.073 Z M39.455 155.358 L242.629 40.419 242.629 124.799 112.41 196.378 111.309 196.928 Z M463.146 155.358 L260.11 40.419 260.11 124.799 390.191 196.515 391.292 197.066 Z" fill="#8ed6fb" fill-opacity="1" stroke="none"/>
  <path id="XMLID_10_" d="M242.629 422.126 L120.945 355.09 120.945 222.532 242.629 292.734 Z M260.11 422.126 L381.794 355.227 381.794 222.532 260.11 292.734 Z M129.066 207.115 L251.301 139.941 373.535 207.115 251.301 277.592 Z" fill="#1c78c0" fill-opacity="1" stroke="none"/>
 </g>
</svg>
