<?xml version="1.0" encoding="UTF-8"?>
<svg width="891px" height="713px" viewBox="0 0 891 713" xmlns="http://www.w3.org/2000/svg" xmlns:xlink="http://www.w3.org/1999/xlink" version="1.1">
 <!-- Generated by Pixelmator Pro 1.5.4 -->
 <g id="XMLID_25_">
  <path id="XMLID_38_" d="M873.357 324.352 L484.99 13.431 C462.795 -4.338 426.587 -4.338 403.81 13.431 L323.217 77.952 425.418 159.773 C449.364 153.227 476.227 157.437 495.502 172.864 514.773 188.294 520.031 210.268 511.853 229.44 L610.551 308.455 C634.495 301.909 661.942 306.117 681.218 321.546 708.08 343.052 708.08 377.183 681.218 398.692 654.354 420.198 611.718 420.198 584.854 398.692 564.998 382.796 559.74 358.948 570.255 339.314 L478.565 265.908 478.565 459.474 C484.99 462.279 491.411 465.552 496.67 469.758 523.532 491.267 523.532 525.398 496.67 546.904 469.803 568.414 426.587 568.414 400.306 546.904 373.443 525.398 373.443 490.798 400.306 469.758 406.73 464.617 414.324 460.409 422.497 458.071 L422.497 262.633 C414.324 259.829 406.73 256.09 400.306 250.946 379.866 234.58 375.195 211.203 385.707 191.099 L283.505 109.746 17.193 322.949 C-4.998 340.715 -4.998 369.705 17.193 387.937 L405.563 698.861 C427.754 716.627 463.962 716.627 486.739 698.861 L873.356 389.339 C895.548 371.105 895.548 342.118 873.356 324.352" fill="#f03c2e" fill-opacity="1" stroke="none"/>
 </g>
</svg>
