<?xml version="1.0" encoding="UTF-8"?>
<svg width="516px" height="586px" viewBox="0 0 516 586" xmlns="http://www.w3.org/2000/svg" xmlns:xlink="http://www.w3.org/1999/xlink" version="1.1">
 <!-- Generated by Pixelmator Pro 1.5.4 -->
 <g id="XMLID_1_">
  <path id="XMLID_11_" d="M47.4 526.876 L0.5 0.459 516 0.459 469.098 526.672 257.844 585.298 Z" fill="#e44d26" fill-opacity="1" stroke="none"/>
  <path id="XMLID_10_" d="M258.25 540.621 L428.87 493.317 469.098 43.517 258.249 43.517 Z" fill="#f16529" fill-opacity="1" stroke="none"/>
  <path id="XMLID_9_" d="M258.25 238.801 L172.736 238.801 166.874 172.695 258.25 172.695 258.25 108.209 258.047 108.209 96.322 108.209 97.939 125.393 113.707 303.291 258.25 303.291 Z" fill="#ebebeb" fill-opacity="1" stroke="none"/>
  <path id="XMLID_8_" d="M258.25 406.391 L258.047 406.592 186.079 386.983 181.429 335.635 146.456 335.635 116.741 335.635 125.633 436.916 258.047 473.708 258.25 473.505 Z" fill="#ebebeb" fill-opacity="1" stroke="none"/>
  <path id="XMLID_3_" d="M258.047 238.801 L258.047 303.291 337.493 303.291 330.016 386.983 258.047 406.391 258.047 473.708 390.258 436.916 391.266 426 406.43 256.187 408.047 238.801 390.661 238.801 Z" fill="#ffffff" fill-opacity="1" stroke="none"/>
  <path id="XMLID_2_" d="M258.047 108.209 L258.047 148.235 258.047 172.494 258.047 172.695 413.709 172.695 413.909 172.695 415.325 158.141 418.155 125.39 419.773 108.209 Z" fill="#ffffff" fill-opacity="1" stroke="none"/>
 </g>
</svg>
