<?xml version="1.0" encoding="UTF-8"?>
<svg width="644px" height="731px" viewBox="0 0 644 731" xmlns="http://www.w3.org/2000/svg" xmlns:xlink="http://www.w3.org/1999/xlink" version="1.1">
 <!-- Generated by Pixelmator Pro 1.5.4 -->
 <g id="XMLID_1_">
  <path id="XMLID_11_" d="M59.029 657.092 L0.5 0.161 643.809 0.161 585.279 656.84 321.649 730 Z" fill="#1f72b5" fill-opacity="1" stroke="none"/>
  <path id="XMLID_10_" d="M322.156 674.246 L535.076 615.214 585.279 53.895 322.153 53.895 Z" fill="#51a3dc" fill-opacity="1" stroke="none"/>
  <path id="XMLID_35_" d="M113.015 205.516 L105.195 129.578 539.113 129.578 534.069 217.623 350.661 298.605 526.5 298.605 507.578 548.36 330.227 596.04 146.316 551.387 134.964 424.743 216.199 424.743 220.737 491.599 327.2 511.528 425.589 481.255 430.129 374.288 127.9 374.288 122.349 294.821 322.153 207.281 Z" fill="#ebebeb" fill-opacity="1" stroke="none"/>
  <g id="XMLID_2_">
   <path id="XMLID_39_" d="M122.349 294.821 L127.9 374.288 322.156 374.288 322.156 207.281 Z" fill="#cecece" fill-opacity="1" stroke="none"/>
   <path id="XMLID_40_" d="M220.737 491.599 L216.199 424.743 134.964 424.743 146.316 551.387 322.153 594.022 322.153 510.519 Z" fill="#cecece" fill-opacity="1" stroke="none"/>
   <path id="XMLID_41_" d="M105.195 129.578 L113.015 205.516 322.156 207.281 322.156 129.578 Z" fill="#cecece" fill-opacity="1" stroke="none"/>
  </g>
 </g>
</svg>
