<?xml version="1.0" encoding="UTF-8"?>
<svg width="592px" height="500px" viewBox="0 0 592 500" xmlns="http://www.w3.org/2000/svg" xmlns:xlink="http://www.w3.org/1999/xlink" version="1.1">
 <!-- Generated by Pixelmator Pro 1.5.4 -->
 <g id="XMLID_1_">
  <path id="XMLID_8_" d="M509.878 283.764 C489.328 283.926 471.367 288.78 456.319 296.223 450.817 285.382 445.316 275.673 444.345 268.554 443.212 260.301 441.918 255.124 443.212 245.253 444.507 235.383 450.332 221.144 450.17 220.173 450.008 219.04 448.876 214.024 437.064 213.862 425.251 213.701 414.896 216.128 413.763 219.202 412.63 222.276 410.365 229.396 408.747 236.839 406.644 247.68 384.961 286.191 372.664 306.255 368.618 298.327 365.22 291.531 364.411 286.029 363.279 277.777 361.984 272.599 363.279 262.729 364.573 252.858 370.398 238.619 370.237 237.648 370.075 236.516 368.942 231.5 357.13 231.338 345.318 231.176 334.962 233.603 333.83 236.677 332.697 239.752 331.402 247.195 328.813 254.314 326.386 261.434 297.584 325.672 289.979 342.339 286.096 350.914 282.698 357.71 280.433 362.241 280.433 362.241 280.271 362.565 279.947 363.05 277.844 367.095 276.711 369.199 276.711 369.199 276.711 369.199 276.711 369.199 276.711 369.36 275.093 372.273 273.313 375.024 272.504 375.024 271.857 375.024 270.724 367.257 272.666 356.74 277.035 334.41 287.229 299.621 287.067 298.488 287.067 297.841 289.009 291.854 280.433 288.618 272.019 285.544 268.944 290.721 268.297 290.721 267.488 290.721 267.003 292.501 267.003 292.501 267.003 292.501 276.387 253.505 249.042 253.505 232.052 253.505 208.428 272.113 196.778 288.942 189.496 292.987 173.801 301.401 157.134 310.624 150.824 314.184 144.19 317.744 138.041 321.142 137.556 320.656 137.232 320.171 136.747 319.685 103.738 284.411 42.736 259.492 45.325 212.082 46.295 194.769 52.282 149.463 162.636 94.448 253.411 49.626 325.739 62.086 338.198 89.593 356.159 128.913 299.526 201.727 205.677 212.406 169.917 216.451 151.148 202.536 146.293 197.358 141.277 192.018 140.63 191.695 138.688 192.665 135.614 194.283 137.556 199.138 138.688 201.888 141.439 209.17 153.089 222.115 172.506 228.587 189.82 234.25 231.728 237.325 282.536 217.746 339.331 195.74 383.828 134.576 370.722 83.283 357.616 31.342 271.371 14.19 189.658 43.154 141.115 60.468 88.527 87.651 50.664 122.926 5.681 164.996 -1.438 201.565 1.474 216.937 11.992 271.304 86.909 306.741 116.844 332.953 115.388 333.763 113.932 334.572 112.799 335.219 97.751 342.662 40.632 372.597 26.393 404.149 10.212 439.909 28.982 465.637 41.441 469.035 79.952 479.714 119.595 460.459 140.792 428.745 161.989 397.03 159.4 355.769 149.691 336.999 149.529 336.837 149.529 336.513 149.206 336.351 153.089 334.086 157.134 331.659 161.018 329.394 168.623 324.863 176.228 320.656 182.7 317.258 178.979 327.29 176.39 339.264 175.095 356.578 173.477 376.804 181.729 403.179 192.732 413.534 197.587 418.065 203.25 418.227 206.972 418.227 219.754 418.227 225.418 407.709 231.728 395.088 239.495 379.716 246.453 361.917 246.453 361.917 246.453 361.917 237.715 409.974 261.501 409.974 270.077 409.974 278.815 398.81 282.698 392.984 L282.698 393.146 C282.698 393.146 282.86 392.823 283.345 392.014 284.154 390.557 284.802 389.748 284.802 389.748 284.802 389.748 284.802 389.587 284.802 389.587 288.2 383.6 295.966 369.846 307.617 347.031 322.503 317.743 336.904 281.013 336.904 281.013 336.904 281.013 338.198 289.912 342.567 304.799 345.156 313.536 350.496 323.083 354.865 332.468 351.467 337.323 349.201 340.073 349.201 340.073 349.201 340.073 349.201 340.073 349.363 340.235 346.612 343.957 343.538 347.84 340.14 351.724 328.328 365.801 314.412 381.82 312.471 386.512 310.205 392.014 310.691 396.059 315.06 399.295 318.134 401.722 323.797 402.046 329.461 401.722 339.978 400.913 347.422 398.324 351.143 396.706 356.807 394.603 363.602 391.528 369.751 386.836 381.24 378.26 388.359 366.124 387.712 350.105 387.388 341.206 384.476 332.468 380.916 324.054 382.049 322.598 383.019 320.98 383.99 319.524 402.275 292.825 416.352 263.699 416.352 263.699 416.352 263.699 417.647 272.599 422.015 287.485 424.119 295.09 428.65 303.181 432.533 311.271 415.381 325.187 404.864 341.368 400.98 351.885 394.184 371.464 399.524 380.364 409.556 382.467 414.087 383.438 420.559 381.334 425.251 379.231 431.239 377.289 438.358 373.891 445.154 369.037 456.642 360.461 467.807 348.649 467.16 332.63 466.837 325.349 464.895 318.067 462.144 311.109 476.707 305.122 495.477 301.724 519.424 304.475 570.718 310.462 580.912 342.5 578.97 356.092 577.028 369.522 566.187 376.966 562.627 379.231 559.068 381.496 557.935 382.305 558.258 383.923 558.744 386.35 560.362 386.189 563.436 385.703 567.643 384.894 590.458 374.862 591.429 349.943 593.533 318.067 563.275 283.44 509.878 283.764 Z M113.77 417.256 C96.78 435.864 72.994 442.822 62.8 436.835 51.797 430.524 56.166 403.017 77.039 383.438 89.822 371.464 106.165 360.299 117.006 353.503 119.433 352.047 123.155 349.782 127.523 347.193 128.332 346.707 128.656 346.546 128.656 346.546 129.465 346.06 130.436 345.413 131.245 344.927 139.012 373.082 131.73 397.839 113.77 417.256 Z M237.877 332.953 C231.89 347.354 219.593 384.409 211.988 382.305 205.515 380.525 201.47 352.533 210.693 324.863 215.386 310.948 225.094 294.281 230.919 287.809 240.142 277.453 250.498 274.055 252.925 278.262 256 283.764 241.437 323.892 237.877 332.953 Z M340.14 381.982 C337.713 383.276 335.286 384.085 334.153 383.438 333.344 382.953 335.286 381.334 335.286 381.334 335.286 381.334 348.069 367.581 353.247 361.27 356.159 357.549 359.557 353.342 363.279 348.487 L363.279 349.943 C363.279 366.286 347.26 377.451 340.14 381.982 Z M419.103 363.859 C417.323 362.565 417.647 358.196 423.795 344.766 426.223 339.426 431.724 330.688 441.432 322.112 442.565 325.51 443.212 328.908 443.212 331.983 443.051 352.856 428.164 360.623 419.103 363.859 Z" fill="#cd6799" fill-opacity="1" stroke="none"/>
 </g>
</svg>
